<svg width="20" height="20" viewBox="0 0 20 20" fill="none" xmlns="http://www.w3.org/2000/svg">
<g clip-path="url(#clip0_6_2)">
<path d="M10 20C15.5228 20 20 15.5228 20 10C20 4.47715 15.5228 0 10 0C4.47715 0 0 4.47715 0 10C0 15.5228 4.47715 20 10 20Z" fill="white"/>
<path d="M15.0583 13.3795C14.5313 14.2965 13.5562 14.8605 12.4996 14.8605H10.7906V9.09732L8.32408 13.3808C7.79709 14.2978 6.82204 14.8618 5.76534 14.8618H4.06828V6.35674H7.48218V12.1054L10.7906 6.35938V6.35674H14.2032V12.1291L17.7884 5.89953C17.9333 5.64655 17.9307 5.33297 17.7738 5.08658C16.1203 2.47512 13.1887 0.753033 9.8578 0.803096C4.77846 0.882151 0.776942 4.97063 0.803291 10.05C0.829648 15.1068 4.93789 19.198 10.0001 19.198C15.0623 19.198 19.1969 15.0805 19.1969 10.0012C19.1969 9.18295 19.0888 8.3898 18.8872 7.63346C18.8266 7.40424 18.5209 7.36204 18.4024 7.56627L15.0569 13.3782L15.0583 13.3795Z" fill="black" />
</g>
<defs>
<clipPath id="clip0_6_2">
<rect width="20" height="20" fill="white"/>
</clipPath>
</defs>
</svg>
