<?xml version="1.0" encoding="UTF-8" standalone="no"?>
<svg
   width="1080"
   height="1080"
   viewBox="0 0 1080 1080"
   fill="none"
   version="1.1"
   id="svg9"
   sodipodi:docname="OKX_Logo.svg"
   inkscape:version="1.3.2 (091e20e, 2023-11-25)"
   xmlns:inkscape="http://www.inkscape.org/namespaces/inkscape"
   xmlns:sodipodi="http://sodipodi.sourceforge.net/DTD/sodipodi-0.dtd"
   xmlns="http://www.w3.org/2000/svg"
   xmlns:svg="http://www.w3.org/2000/svg">
  <defs
     id="defs9" />
  <sodipodi:namedview
     id="namedview9"
     pagecolor="#ffffff"
     bordercolor="#000000"
     borderopacity="0.25"
     inkscape:showpageshadow="2"
     inkscape:pageopacity="0.0"
     inkscape:pagecheckerboard="0"
     inkscape:deskcolor="#d1d1d1"
     inkscape:zoom="0.41667073"
     inkscape:cx="561.59453"
     inkscape:cy="488.39524"
     inkscape:window-width="1624"
     inkscape:window-height="876"
     inkscape:window-x="1834"
     inkscape:window-y="1545"
     inkscape:window-maximized="0"
     inkscape:current-layer="svg9" />
  <rect
     width="1080"
     height="1080"
     fill="white"
     id="rect1" />
  <path
     d="M 674.35905,389.08248 H 407.8932 c -11.32013,0 -20.49896,9.22248 -20.49896,20.60156 v 267.85754 c 0,11.37909 9.17883,20.6057 20.49896,20.6057 h 266.46585 c 11.32013,0 20.49897,-9.22661 20.49897,-20.6057 V 409.68404 c 0,-11.37908 -9.17884,-20.60156 -20.49897,-20.60156 z"
     fill="#000000"
     id="path2"
     style="stroke-width:4.12862" />
  <path
     d="M 366.77175,80.009388 H 100.30589 c -11.320133,0 -20.498952,9.22248 -20.498952,20.605702 v 267.8534 c 0,11.37909 9.178819,20.6057 20.498952,20.6057 h 266.46586 c 11.32425,0 20.49895,-9.22661 20.49895,-20.6057 v -267.8534 c 0,-11.383222 -9.1747,-20.605702 -20.49895,-20.605702 z"
     fill="#000000"
     id="path3"
     style="stroke-width:4.12862" />
  <path
     d="M 981.69927,80.009388 H 715.22932 c -11.32014,0 -20.49896,9.22248 -20.49896,20.605702 v 267.8534 c 0,11.37909 9.17882,20.6057 20.49896,20.6057 h 266.46995 c 11.32017,0 20.49493,-9.22661 20.49493,-20.6057 v -267.8534 c 0,-11.383222 -9.17476,-20.605702 -20.49493,-20.605702 z"
     fill="#000000"
     id="path4"
     style="stroke-width:4.12862" />
  <path
     d="M 366.77175,698.13073 H 100.30589 c -11.320133,0 -20.498952,9.22248 -20.498952,20.60157 v 267.85753 c 0,11.37909 9.178819,20.60567 20.498952,20.60567 h 266.46586 c 11.32425,0 20.49895,-9.22658 20.49895,-20.60567 V 718.7323 c 0,-11.37909 -9.1747,-20.60157 -20.49895,-20.60157 z"
     fill="#000000"
     id="path5"
     style="stroke-width:4.12862" />
  <path
     d="M 981.69927,698.13073 H 715.22932 c -11.32014,0 -20.49896,9.22248 -20.49896,20.60157 v 267.85753 c 0,11.37909 9.17882,20.60567 20.49896,20.60567 h 266.46995 c 11.32017,0 20.49493,-9.22658 20.49493,-20.60567 V 718.7323 c 0,-11.37909 -9.17476,-20.60157 -20.49493,-20.60157 z"
     fill="#000000"
     id="path6"
     style="stroke-width:4.12862" />
</svg>
