<svg width="20" height="18" viewBox="0 0 20 18" fill="none" xmlns="http://www.w3.org/2000/svg"><path fill-rule="evenodd" clip-rule="evenodd" d="M19.9602 1.02116C19.9442 0.944982 19.9088 0.874563 19.8577 0.817099C19.8066 0.759635 19.7417 0.717187 19.6695 0.694093C19.4069 0.640346 19.1351 0.660257 18.8826 0.751749C18.8826 0.751749 1.3579 7.25116 0.357481 7.96504C0.141943 8.12019 0.0697653 8.21034 0.0341812 8.31517C-0.138656 8.82779 0.400189 9.04897 0.400189 9.04897L4.91632 10.5669C4.99255 10.5809 5.0709 10.5762 5.14506 10.5533C6.17293 9.88342 15.4827 3.82219 16.0236 3.61883C16.108 3.59262 16.1711 3.61883 16.1548 3.68277C15.9392 4.4606 7.85352 11.872 7.85352 11.872C7.83354 11.8985 7.81682 11.9273 7.80371 11.958L7.79353 11.9517L7.37161 16.5715C7.37161 16.5715 7.19572 17.9867 8.56723 16.5715C9.53512 15.5725 10.4725 14.7381 10.9412 14.3313C12.4947 15.4373 14.1661 16.6606 14.887 17.3001C15.0079 17.421 15.1513 17.5155 15.3085 17.578C15.4658 17.6405 15.6336 17.6697 15.802 17.6638C16.4862 17.6376 16.6774 16.8619 16.6774 16.8619C16.6774 16.8619 19.8708 3.61149 19.9724 1.83673C19.9826 1.66271 19.9968 1.5516 19.9989 1.43209C20.0042 1.29388 19.9908 1.15558 19.9592 1.02116" fill="currentColor"></path></svg>