<svg width="40" height="40" viewBox="0 0 40 40" fill="none" xmlns="http://www.w3.org/2000/svg">
<path d="M19.9265 39.9193C14.6458 39.9159 9.58207 37.8127 5.84638 34.071C2.11069 30.3293 0.00811786 25.2548 0 19.9609C0.00811671 14.6668 2.11057 9.59207 5.84619 5.84999C9.58181 2.10791 14.6455 0.00406303 19.9265 0C25.2074 0.00406303 30.2711 2.10791 34.0067 5.84999C37.7423 9.59207 39.8448 14.6668 39.8529 19.9609C39.8448 25.2548 37.7422 30.3293 34.0066 34.071C30.2709 37.8127 25.2072 39.9159 19.9265 39.9193ZM19.9265 1.53664C15.0519 1.54002 10.3776 3.48177 6.92931 6.93582C3.481 10.3899 1.54025 15.0742 1.53281 19.9609C1.53754 24.8483 3.47753 29.5339 6.9265 32.9882C10.3755 36.4424 15.0513 38.3827 19.9265 38.3827C24.8017 38.3827 29.4775 36.4424 32.9264 32.9882C36.3754 29.5339 38.3153 24.8483 38.3201 19.9609C38.3126 15.0742 36.3719 10.3899 32.9236 6.93582C29.4753 3.48177 24.8011 1.54002 19.9265 1.53664Z" fill="white"/>
<path d="M22.4457 36.7614C18.0707 36.758 13.8757 35.0151 10.7809 31.9149C7.68606 28.8148 5.94423 24.6106 5.93747 20.2246C5.94423 15.8387 7.68606 11.6345 10.7809 8.53432C13.8757 5.43417 18.0707 3.69122 22.4457 3.68784C26.8208 3.69122 31.0158 5.43417 34.1106 8.53432C37.2054 11.6345 38.9473 15.8387 38.954 20.2246C38.9473 24.6106 37.2054 28.8148 34.1106 31.9149C31.0158 35.0151 26.8208 36.758 22.4457 36.7614ZM22.4457 4.8813C18.3867 4.88469 14.4947 6.50198 11.6236 9.37839C8.75241 12.2548 7.13657 16.1554 7.13048 20.2246C7.13725 24.2934 8.75342 28.1934 11.6245 31.0692C14.4956 33.9451 18.3871 35.562 22.4457 35.5654C26.5044 35.562 30.3959 33.9451 33.267 31.0692C36.1381 28.1934 37.7543 24.2934 37.761 20.2246C37.7543 16.1559 36.1381 12.2559 33.267 9.38001C30.3959 6.50416 26.5044 4.88725 22.4457 4.88386V4.8813Z" fill="white"/>
<path d="M24.9641 33.6062C21.495 33.6035 18.1686 32.2214 15.7146 29.7632C13.2606 27.305 11.8794 23.9714 11.874 20.4936C11.8794 17.0158 13.2606 13.6821 15.7146 11.2239C18.1686 8.76567 21.495 7.38363 24.9641 7.38092C28.4335 7.38295 31.7602 8.76478 34.2144 11.2231C36.6685 13.6815 38.0495 17.0155 38.0542 20.4936C38.0488 23.9714 36.6676 27.305 34.2136 29.7632C31.7596 32.2214 28.4333 33.6035 24.9641 33.6062ZM24.9641 8.23374C21.7204 8.23577 18.61 9.52775 16.3154 11.8262C14.0208 14.1246 12.7294 17.2417 12.7247 20.4936C12.7301 23.7449 14.0218 26.8614 16.3163 29.1593C18.6108 31.4572 21.7209 32.7488 24.9641 32.7508C28.2074 32.7488 31.3175 31.4572 33.612 29.1593C35.9065 26.8614 37.1982 23.7449 37.2036 20.4936C37.1989 17.2417 35.9075 14.1246 33.6129 11.8262C31.3183 9.52775 28.2079 8.23577 24.9641 8.23374Z" fill="white"/>
<path d="M27.4834 30.4483C24.9202 30.4463 22.4624 29.4251 20.6492 27.6088C18.836 25.7925 17.8155 23.3294 17.8115 20.7598C17.8148 18.1897 18.8351 15.7259 20.6484 13.9091C22.4616 12.0923 24.9198 11.0708 27.4834 11.0687C30.0471 11.0708 32.5053 12.0923 34.3186 13.9091C36.1318 15.7259 37.152 18.1897 37.1554 20.7598C37.1513 23.3294 36.1309 25.7925 34.3177 27.6088C32.5045 29.4251 30.0467 30.4463 27.4834 30.4483ZM27.4834 11.581C25.0553 11.583 22.7271 12.5505 21.0097 14.2713C19.2922 15.9921 18.3258 18.3256 18.3224 20.7598C18.3265 23.1936 19.2932 25.5264 21.0105 27.2466C22.7279 28.9668 25.0557 29.934 27.4834 29.9361C29.9111 29.934 32.2389 28.9668 33.9563 27.2466C35.6737 25.5264 36.6404 23.1936 36.6445 20.7598C36.6411 18.3256 35.6748 15.9921 33.9573 14.2713C32.2399 12.5505 29.9116 11.583 27.4834 11.581Z" fill="white"/>
</svg>
