<svg width="30" height="30" viewBox="0 0 30 30" fill="none" xmlns="http://www.w3.org/2000/svg">
<g clip-path="url(#clip0_3_5)">
<mask id="mask0_3_5" style="mask-type:luminance" maskUnits="userSpaceOnUse" x="0" y="0" width="30" height="30">
<path d="M30 0H0V30H30V0Z" fill="white"/>
</mask>
<g mask="url(#mask0_3_5)">
<path d="M15 30C23.2842 30 30 23.2842 30 15C30 6.71572 23.2842 0 15 0C6.71572 0 0 6.71572 0 15C0 23.2842 6.71572 30 15 30Z" fill="white"/>
<path d="M22.5874 20.0693C21.7969 21.4448 20.3343 22.2908 18.7494 22.2908H16.1859V13.646L12.4861 20.0712C11.6956 21.4467 10.233 22.2927 8.64798 22.2927H6.10239V9.53512H11.2232V18.1581L16.1859 9.53908V9.53512H21.3048V18.1937L26.6826 8.84931C26.8999 8.46984 26.896 7.99947 26.6607 7.62988C24.1804 3.71269 19.783 1.12956 14.7867 1.20466C7.16766 1.32324 1.16538 7.45596 1.20491 15.075C1.24444 22.6602 7.4068 28.797 15.0001 28.797C22.5934 28.797 28.7953 22.6208 28.7953 15.0018C28.7953 13.7744 28.6332 12.5847 28.3308 11.4502C28.2399 11.1064 27.7813 11.0431 27.6036 11.3494L22.5853 20.0673L22.5874 20.0693Z" fill="black"/>
</g>
</g>
<defs>
<clipPath id="clip0_3_5">
<rect width="30" height="30" fill="white"/>
</clipPath>
</defs>
</svg>
