<svg width="130" height="24" viewBox="0 0 130 24" fill="none" xmlns="http://www.w3.org/2000/svg">
<path d="M42.181 7.39869L39.2074 15.8503C39.1938 15.8911 39.1669 15.9261 39.1312 15.9499C39.0954 15.9736 39.0528 15.9846 39.0101 15.9812H38.7848C38.742 15.9829 38.6996 15.9713 38.6636 15.9478C38.6277 15.9244 38.5998 15.8903 38.5838 15.8503L36.3546 9.92284L34.129 15.8503C34.1142 15.8903 34.0871 15.9246 34.0516 15.9481C34.0162 15.9717 33.9741 15.9833 33.9317 15.9812H33.7027C33.6602 15.9836 33.618 15.9722 33.5825 15.9486C33.5469 15.925 33.5199 15.8905 33.5054 15.8503L30.5318 7.40165C30.4862 7.27067 30.5355 7.18927 30.6622 7.18927H31.5824C31.6257 7.18487 31.6693 7.19544 31.7058 7.21926C31.7424 7.24307 31.7697 7.27869 31.7834 7.32025L33.903 13.719L36.0579 7.85897C36.0734 7.81862 36.1011 7.78422 36.1372 7.7607C36.1733 7.73717 36.2159 7.72572 36.2589 7.72799H36.4525C36.495 7.72583 36.537 7.73737 36.5725 7.76094C36.608 7.7845 36.6351 7.81885 36.6498 7.85897L38.8687 13.719L40.939 7.32025C40.9527 7.27869 40.98 7.24307 41.0166 7.21926C41.0531 7.19544 41.0967 7.18487 41.14 7.18927H42.0463C42.1766 7.18927 42.2259 7.27067 42.1802 7.39869" fill="white"/>
<path d="M55.1227 11.5167C55.1144 12.3871 54.85 13.2357 54.3629 13.9554C53.8757 14.6751 53.1876 15.2338 52.3851 15.5612C51.5826 15.8885 50.7017 15.9699 49.8534 15.795C49.005 15.62 48.2271 15.1967 47.6176 14.5783C47.0082 13.9598 46.5944 13.1739 46.4285 12.3195C46.2625 11.4652 46.3518 10.5806 46.6851 9.77711C47.0184 8.97367 47.5808 8.28733 48.3015 7.80455C49.0221 7.32177 49.8688 7.06413 50.7348 7.06409C51.3169 7.05587 51.8946 7.16573 52.4334 7.38712C52.9722 7.60851 53.4611 7.93687 53.8707 8.35256C54.2803 8.76824 54.6024 9.26271 54.8175 9.80638C55.0326 10.3501 55.1364 10.9318 55.1227 11.5167ZM53.9057 11.5167C53.9057 9.46762 52.5761 8.05643 50.7348 8.05643C48.8935 8.05643 47.5639 9.46762 47.5639 11.5167C47.5639 13.5657 48.8935 14.9769 50.7348 14.9769C52.5761 14.9769 53.9057 13.5657 53.9057 11.5167Z" fill="white"/>
<path d="M66.7427 15.4901C66.7707 15.5227 66.7882 15.5631 66.793 15.606C66.7977 15.6488 66.7894 15.6921 66.7691 15.7301C66.7488 15.7681 66.7176 15.799 66.6795 15.8188C66.6414 15.8386 66.5982 15.8463 66.5557 15.8409H65.7267C65.6997 15.84 65.6733 15.8325 65.65 15.819C65.6266 15.8054 65.6069 15.7862 65.5927 15.7632L63.5122 12.6078H61.2763V15.664C61.2757 15.7109 61.2569 15.7558 61.2239 15.789C61.1909 15.8221 61.1463 15.841 61.0996 15.8416H60.2897C60.2432 15.8408 60.1987 15.8219 60.1659 15.7887C60.133 15.7555 60.1143 15.7108 60.1138 15.664V7.36785C60.1145 7.32111 60.1333 7.27648 60.1661 7.24336C60.1989 7.21024 60.2432 7.1912 60.2897 7.19025H63.4746C65.7039 7.19025 66.8045 8.36759 66.8045 9.89865C66.8181 10.507 66.6147 11.1002 66.2311 11.571C65.8475 12.0418 65.309 12.3592 64.7129 12.4657L66.7427 15.4901ZM63.2471 11.6155C65 11.6155 65.589 10.8851 65.589 9.89939C65.589 8.91371 65 8.18333 63.2471 8.18333H61.2755V11.6155H63.2471Z" fill="white"/>
<path d="M80.4385 7.05089H80.7028C80.7264 7.04937 80.75 7.05292 80.7722 7.0613C80.7943 7.06969 80.8144 7.08272 80.8311 7.09953C80.8478 7.11633 80.8608 7.13653 80.8691 7.15876C80.8775 7.181 80.881 7.20477 80.8795 7.22849V15.6645C80.881 15.6882 80.8775 15.712 80.8691 15.7342C80.8608 15.7565 80.8478 15.7767 80.8311 15.7935C80.8144 15.8103 80.7943 15.8233 80.7722 15.8317C80.75 15.8401 80.7264 15.8436 80.7028 15.8421H79.893C79.8694 15.8436 79.8457 15.8401 79.8236 15.8317C79.8015 15.8233 79.7814 15.8103 79.7646 15.7935C79.7479 15.7767 79.735 15.7565 79.7266 15.7342C79.7183 15.712 79.7147 15.6882 79.7163 15.6645V9.67567L76.4534 14.4228C76.4427 14.4463 76.4255 14.4661 76.4039 14.4801C76.3823 14.494 76.3572 14.5014 76.3315 14.5014C76.3058 14.5014 76.2807 14.494 76.2591 14.4801C76.2375 14.4661 76.2203 14.4463 76.2097 14.4228L72.9475 9.67567V15.6638C72.949 15.6875 72.9455 15.7113 72.9371 15.7335C72.9288 15.7557 72.9158 15.7759 72.8991 15.7927C72.8824 15.8095 72.8623 15.8226 72.8402 15.831C72.818 15.8393 72.7944 15.8429 72.7708 15.8414H71.961C71.9374 15.8429 71.9137 15.8393 71.8916 15.831C71.8695 15.8226 71.8494 15.8095 71.8327 15.7927C71.816 15.7759 71.803 15.7557 71.7946 15.7335C71.7863 15.7113 71.7828 15.6875 71.7843 15.6638V7.22775C71.7828 7.20403 71.7863 7.18026 71.7946 7.15802C71.803 7.13579 71.816 7.11559 71.8327 7.09879C71.8494 7.08198 71.8695 7.06895 71.8916 7.06057C71.9137 7.05218 71.9374 7.04863 71.961 7.05015H72.2223C72.2662 7.05031 72.3093 7.06141 72.3479 7.08247C72.3864 7.10352 72.4192 7.13386 72.4432 7.17077L76.3304 12.6268L80.2206 7.17077C80.2433 7.13404 80.275 7.10371 80.3126 7.08262C80.3502 7.06153 80.3925 7.05035 80.4356 7.05015" fill="white"/>
<path d="M93.9686 7.36785V15.6633C93.9678 15.7101 93.9489 15.7549 93.916 15.788C93.883 15.8211 93.8385 15.8401 93.7918 15.8409H92.982C92.9354 15.8401 92.8909 15.8211 92.8579 15.788C92.8249 15.7549 92.8061 15.7101 92.8053 15.6633V11.8841H87.4479V15.6633C87.4471 15.7101 87.4283 15.7549 87.3953 15.788C87.3623 15.8211 87.3178 15.8401 87.2712 15.8409H86.4614C86.4147 15.8401 86.3702 15.8211 86.3373 15.788C86.3043 15.7549 86.2854 15.7101 86.2847 15.6633V7.36785C86.2854 7.32098 86.3043 7.27625 86.3373 7.24311C86.3702 7.20997 86.4147 7.19101 86.4614 7.19025H87.2712C87.3178 7.19101 87.3623 7.20997 87.3953 7.24311C87.4283 7.27625 87.4471 7.32098 87.4479 7.36785V10.8917H92.8053V7.36785C92.8061 7.32098 92.8249 7.27625 92.8579 7.24311C92.8909 7.20997 92.9354 7.19101 92.982 7.19025H93.7918C93.8385 7.19101 93.883 7.20997 93.916 7.24311C93.9489 7.27625 93.9678 7.32098 93.9686 7.36785Z" fill="white"/>
<path d="M107.735 11.5167C107.727 12.3871 107.462 13.2357 106.975 13.9554C106.488 14.6751 105.8 15.2338 104.997 15.5612C104.195 15.8885 103.314 15.9699 102.466 15.795C101.617 15.62 100.839 15.1967 100.23 14.5783C99.6205 13.9598 99.2067 13.1739 99.0408 12.3195C98.8748 11.4652 98.9642 10.5806 99.2975 9.77711C99.6308 8.97367 100.193 8.28733 100.914 7.80455C101.634 7.32177 102.481 7.06413 103.347 7.06409C103.929 7.05587 104.507 7.16573 105.046 7.38712C105.585 7.60851 106.073 7.93687 106.483 8.35256C106.893 8.76824 107.215 9.26271 107.43 9.80638C107.645 10.3501 107.749 10.9318 107.735 11.5167ZM106.518 11.5167C106.518 9.46762 105.188 8.05643 103.347 8.05643C101.506 8.05643 100.176 9.46762 100.176 11.5167C100.176 13.5657 101.506 14.9769 103.347 14.9769C105.188 14.9769 106.518 13.5657 106.518 11.5167Z" fill="white"/>
<path d="M118.819 15.0254V15.6633C118.82 15.687 118.817 15.7108 118.808 15.733C118.8 15.7552 118.787 15.7754 118.77 15.7922C118.754 15.809 118.734 15.8221 118.711 15.8305C118.689 15.8388 118.666 15.8424 118.642 15.8409H112.904C112.857 15.8401 112.813 15.8211 112.78 15.788C112.747 15.7549 112.728 15.7101 112.727 15.6633V7.36785C112.728 7.32098 112.747 7.27625 112.78 7.24311C112.813 7.20997 112.857 7.19101 112.904 7.19025H113.714C113.76 7.1912 113.805 7.21024 113.837 7.24336C113.87 7.27648 113.889 7.32111 113.89 7.36785V14.8478H118.644C118.668 14.8463 118.692 14.8498 118.714 14.8582C118.736 14.8666 118.756 14.8796 118.773 14.8964C118.789 14.9132 118.802 14.9334 118.811 14.9557C118.819 14.9779 118.822 15.0017 118.821 15.0254" fill="white"/>
<path d="M129.999 15.0238V15.6617C130.001 15.6854 129.997 15.7091 129.989 15.7314C129.98 15.7536 129.967 15.7738 129.951 15.7906C129.934 15.8074 129.914 15.8205 129.892 15.8288C129.87 15.8372 129.846 15.8408 129.822 15.8393H123.626C123.579 15.8385 123.535 15.8195 123.502 15.7864C123.469 15.7533 123.45 15.7085 123.449 15.6617V7.36624C123.45 7.31937 123.469 7.27464 123.502 7.2415C123.535 7.20835 123.579 7.1894 123.626 7.18864H129.682C129.705 7.18712 129.729 7.19067 129.751 7.19905C129.773 7.20744 129.793 7.22047 129.81 7.23728C129.827 7.25408 129.84 7.27428 129.848 7.29651C129.856 7.31875 129.86 7.34252 129.858 7.36624V8.00412C129.86 8.02784 129.856 8.05161 129.848 8.07384C129.84 8.09608 129.827 8.11627 129.81 8.13308C129.793 8.14988 129.773 8.16291 129.751 8.1713C129.729 8.17969 129.705 8.18324 129.682 8.18172H124.61V10.8901H129.118C129.141 10.8886 129.164 10.8921 129.186 10.9003C129.208 10.9085 129.228 10.9212 129.244 10.9376C129.261 10.954 129.274 10.9737 129.283 10.9955C129.291 11.0173 129.295 11.0406 129.294 11.064V11.7056C129.295 11.7292 129.292 11.7528 129.283 11.7749C129.275 11.797 129.262 11.8171 129.245 11.8338C129.229 11.8505 129.209 11.8635 129.187 11.8719C129.165 11.8803 129.141 11.8839 129.118 11.8825H124.61V14.8462H129.823C129.847 14.8447 129.87 14.8482 129.893 14.8566C129.915 14.865 129.935 14.878 129.951 14.8948C129.968 14.9116 129.981 14.9318 129.989 14.9541C129.998 14.9763 130.001 15.0001 130 15.0238" fill="white"/>
<path d="M11.3333 23.3343C8.32989 23.3324 5.44987 22.1238 3.32517 19.9736C1.20047 17.8235 0.00461709 14.9075 0 11.8654C0.00461644 8.82312 1.2004 5.90694 3.32506 3.75657C5.44972 1.6062 8.32975 0.397232 11.3333 0.394897C14.3369 0.397232 17.2169 1.6062 19.3415 3.75657C21.4662 5.90694 22.662 8.82312 22.6666 11.8654C22.662 14.9075 21.4662 17.8235 19.3415 19.9736C17.2168 22.1238 14.3368 23.3324 11.3333 23.3343ZM11.3333 1.27792C8.56085 1.27987 5.90234 2.39568 3.94109 4.38053C1.97984 6.36539 0.876026 9.05719 0.871794 11.8654C0.87449 14.6739 1.97787 17.3664 3.9395 19.3514C5.90112 21.3364 8.56051 22.4513 11.3333 22.4513C14.1061 22.4513 16.7655 21.3364 18.7271 19.3514C20.6888 17.3664 21.7921 14.6739 21.7948 11.8654C21.7906 9.05719 20.6868 6.36539 18.7255 4.38053C16.7643 2.39568 14.1058 1.27987 11.3333 1.27792Z" fill="white"/>
<path d="M12.7662 21.5192C10.2778 21.5172 7.89187 20.5157 6.13167 18.7342C4.37148 16.9527 3.3808 14.5368 3.37695 12.0164C3.3808 9.49604 4.37148 7.08011 6.13167 5.29862C7.89187 3.51713 10.2778 2.51556 12.7662 2.51361C15.2545 2.51556 17.6404 3.51713 19.4006 5.29862C21.1608 7.08011 22.1515 9.49604 22.1554 12.0164C22.1515 14.5368 21.1608 16.9527 19.4006 18.7342C17.6404 20.5157 15.2545 21.5172 12.7662 21.5192ZM12.7662 3.19943C10.4575 3.20138 8.24394 4.13075 6.61095 5.78366C4.97797 7.43657 4.05895 9.67806 4.05549 12.0164C4.05933 14.3545 4.97854 16.5956 6.61149 18.2482C8.24443 19.9008 10.4578 20.83 12.7662 20.8319C15.0745 20.83 17.2879 19.9008 18.9208 18.2482C20.5538 16.5956 21.473 14.3545 21.4768 12.0164C21.473 9.67832 20.5538 7.43719 18.9208 5.78459C17.2879 4.132 15.0745 3.20285 12.7662 3.2009V3.19943Z" fill="white"/>
<path d="M14.1985 19.7066C12.2254 19.705 10.3335 18.9108 8.9378 17.4982C7.54207 16.0856 6.7565 14.17 6.75342 12.1715C6.7565 10.173 7.54207 8.2573 8.9378 6.8447C10.3335 5.43209 12.2254 4.63791 14.1985 4.63635C16.1717 4.63752 18.0639 5.43158 19.4597 6.84427C20.8555 8.25696 21.6409 10.1728 21.6436 12.1715C21.6405 14.17 20.855 16.0856 19.4592 17.4982C18.0635 18.9108 16.1716 19.705 14.1985 19.7066ZM14.1985 5.12642C12.3537 5.12759 10.5846 5.87002 9.27948 7.1908C7.9744 8.51158 7.23993 10.3028 7.23724 12.1715C7.24032 14.0399 7.97498 15.8307 9.28001 17.1512C10.585 18.4717 12.3539 19.2139 14.1985 19.215C16.0432 19.2139 17.812 18.4717 19.1171 17.1512C20.4221 15.8307 21.1568 14.0399 21.1598 12.1715C21.1571 10.3028 20.4226 8.51158 19.1176 7.1908C17.8125 5.87002 16.0434 5.12759 14.1985 5.12642Z" fill="white"/>
<path d="M15.6311 17.8914C14.1733 17.8903 12.7754 17.3035 11.7441 16.2598C10.7129 15.216 10.1324 13.8006 10.1301 12.324C10.1321 10.8471 10.7123 9.43131 11.7436 8.38727C12.7749 7.34323 14.173 6.75623 15.6311 6.75507C17.0892 6.75623 18.4873 7.34323 19.5187 8.38727C20.55 9.43131 21.1302 10.8471 21.1321 12.324C21.1298 13.8006 20.5494 15.216 19.5182 16.2598C18.4869 17.3035 17.089 17.8903 15.6311 17.8914ZM15.6311 7.04941C14.2501 7.05057 12.9259 7.60656 11.9491 8.5954C10.9723 9.58424 10.4226 10.9252 10.4207 12.324C10.423 13.7226 10.9729 15.0631 11.9496 16.0516C12.9264 17.0401 14.2503 17.5959 15.6311 17.5971C17.0119 17.5959 18.3359 17.0401 19.3126 16.0516C20.2894 15.0631 20.8392 13.7226 20.8415 12.324C20.8396 10.9252 20.29 9.58424 19.3132 8.5954C18.3364 7.60656 17.0122 7.05057 15.6311 7.04941Z" fill="white"/>
</svg>
